<svg width="21" height="27" viewBox="0 0 21 27" fill="none" xmlns="http://www.w3.org/2000/svg">
<path d="M7.40494 0.0580318C6.82994 0.189868 6.25044 0.717211 6.00787 1.32893C5.84165 1.74553 5.78326 2.09885 5.78326 2.69475V3.16409H4.03579C3.03853 3.16409 2.18951 3.18518 2.05025 3.21682C1.21021 3.40666 0.567826 4.18713 0.428568 5.19963C0.293803 6.15413 0.725053 7.15608 1.46626 7.61487L1.77622 7.80471L1.80318 8.11057C1.82115 8.27405 2.09517 12.1342 2.41412 16.6905C2.73755 21.2414 3.01607 25.0594 3.03853 25.1701C3.20025 25.9875 3.83365 26.7258 4.54341 26.9209C4.9522 27.0369 16.0479 27.0369 16.4567 26.9209C17.1665 26.7258 17.7999 25.9875 17.9616 25.1701C17.984 25.0594 18.2626 21.2414 18.586 16.6905C18.9049 12.1342 19.179 8.27405 19.1969 8.11057L19.2239 7.80471L19.5338 7.61487C20.2751 7.15608 20.7063 6.15413 20.5715 5.19963C20.4323 4.18713 19.7899 3.40666 18.9499 3.21682C18.8106 3.18518 17.9616 3.16409 16.9643 3.16409H15.2168V2.69475C15.2168 2.44163 15.1944 2.10413 15.1719 1.94592C15.0192 0.996704 14.3678 0.232055 13.5592 0.0527583C13.2627 -0.0105229 7.69244 -0.0105229 7.40494 0.0580318ZM13.5098 1.68752C13.7793 1.851 13.8692 2.09885 13.8692 2.68948V3.16409H10.5001H7.13091V2.68948C7.13091 2.1094 7.22076 1.851 7.4813 1.6928C7.64302 1.5926 7.75083 1.58733 10.4911 1.58206C13.2538 1.58206 13.3391 1.58733 13.5098 1.68752ZM18.9004 4.85159C19.1026 4.97288 19.2598 5.27346 19.2598 5.53713C19.2598 5.80081 19.1026 6.10139 18.9004 6.22268C18.7252 6.32815 18.6534 6.32815 10.5001 6.32815C2.34673 6.32815 2.27486 6.32815 2.09966 6.22268C1.89751 6.10139 1.74029 5.80081 1.74029 5.53713C1.74029 5.28401 1.89751 4.97288 2.09068 4.85686C2.2524 4.75139 2.38267 4.75139 10.4911 4.74612C18.6579 4.74612 18.7252 4.74612 18.9004 4.85159ZM17.8403 8.13166C17.8313 8.25823 17.5573 12.0709 17.2383 16.6008C16.6094 25.534 16.6588 25.0278 16.3713 25.2809L16.2456 25.3916H10.5001H4.75454L4.62876 25.2809C4.34126 25.0278 4.39068 25.534 3.76177 16.6008C3.44283 12.0709 3.1688 8.25823 3.15982 8.13166L3.13287 7.91018H10.5001H17.8672L17.8403 8.13166Z" fill="black"/>
<path d="M6.12905 9.60293C6.01675 9.67148 5.9269 9.78223 5.86851 9.92988L5.77417 10.1566L6.11558 16.6641C6.49741 23.9467 6.45698 23.5143 6.81187 23.7305C7.04097 23.8623 7.22065 23.8623 7.44976 23.7305C7.57104 23.6566 7.6564 23.5512 7.71929 23.3982L7.81362 23.1715L7.47222 16.6641C7.09038 9.38145 7.13081 9.81387 6.77593 9.59766C6.55132 9.46582 6.34917 9.46582 6.12905 9.60293Z" fill="black"/>
<path d="M10.1766 9.60293C10.0732 9.66621 9.96992 9.7875 9.91602 9.91406C9.82617 10.1197 9.82617 10.2146 9.82617 16.6641C9.82617 23.1187 9.82617 23.2084 9.91602 23.4141C10.0193 23.6514 10.2754 23.8359 10.5 23.8359C10.7246 23.8359 10.9807 23.6514 11.084 23.4141C11.1738 23.2084 11.1738 23.1187 11.1738 16.6641C11.1738 10.2094 11.1738 10.1197 11.084 9.91406C10.9178 9.5291 10.5135 9.39199 10.1766 9.60293Z" fill="black"/>
<path d="M14.215 9.60293C13.8691 9.81914 13.9095 9.40781 13.5277 16.6641L13.1863 23.1715L13.2806 23.3982C13.3435 23.5512 13.4289 23.6566 13.5501 23.7305C13.7792 23.8623 13.9589 23.8623 14.188 23.7305C14.5429 23.5143 14.5025 23.9467 14.8843 16.6641L15.2257 10.1566L15.1314 9.92988C14.9652 9.53437 14.5609 9.38672 14.215 9.60293Z" fill="black"/>
</svg>
